<svg xmlns="http://www.w3.org/2000/svg" xmlns:xlink="http://www.w3.org/1999/xlink" version="1.1" id="Layer_1" x="0px" y="0px" viewBox="0 0 200 63" style="enable-background:new 0 0 200 63;" xml:space="preserve" class="svg replaced-svg">
    	 <style>.letters, .copyr {fill:#ffffff;} .number-1 {fill:#ffd200;}</style>
<path class="number-1" d="M175.442,8.929c-1.208,1.286-2.783,2.149-4.713,2.578c-0.363,0.076-0.824,0.152-1.337,0.221v6.944  h6.484v29.936h9.849V5.709h-8.504c-0.411,1.327-1.005,2.41-1.779,3.225L175.442,8.929z"></path>
<polygon class="letters letter-v" points="61.749,11.777 72.062,11.777 58.787,48.637 48.655,48.637 35.466,11.777 46.276,11.777 53.921,36.468 "></polygon>
<path class="copyr" d="M194.482,0C197.583,0,200,2.421,200,5.432c0,3.083-2.417,5.471-5.551,5.471c-3.106,0-5.591-2.388-5.591-5.471 c0-3.011,2.485-5.432,5.591-5.432H194.482z M194.416,1.092c-2.391,0-4.16,1.959-4.16,4.34c0,2.424,1.769,4.34,4.226,4.34 c2.374,0.036,4.127-1.916,4.127-4.34c0-2.381-1.753-4.34-4.16-4.34H194.416z M193.583,8.248h-1.252V2.849 c0.502-0.097,1.184-0.201,2.085-0.201c1.016,0,1.483,0.168,1.881,0.432c0.301,0.234,0.526,0.663,0.526,1.161 c0,0.628-0.462,1.092-1.128,1.293v0.069c0.53,0.165,0.832,0.591,0.997,1.319c0.164,0.833,0.258,1.161,0.396,1.326h-1.358 c-0.16-0.201-0.258-0.66-0.429-1.293c-0.092-0.594-0.424-0.862-1.115-0.862h-0.603V8.248z M193.619,5.204h0.594 c0.694,0,1.26-0.231,1.26-0.801c0-0.495-0.363-0.826-1.149-0.826c-0.335,0-0.572,0.031-0.704,0.064V5.204z"></path>
<path class="letters letter-y" d="M166.457,11.777H156.14l-4.853,15.322l-3.088,8.98l-7.537-24.302h-10.793l13.707,37.814c-0.941,1.774-1.673,2.844-3.2,3.741 c-2.16,1.261-4.733,1.696-7.415,0.832l-2.519,7.748c6.02,1.942,11.655,1.146,15.48-1.294c4.205-2.671,5.756-6.597,7.371-11.651 l7.84-22.38L166.457,11.777z"></path>
<path class="letters letter-e" d="M107.237,32.913c0.105-0.871,0.154-1.761,0.154-2.686c0-5.31-1.546-9.918-4.65-13.818c-3.095-3.896-7.817-5.84-14.129-5.84 c-6.316,0-11.015,1.944-14.126,5.84c-3.104,3.9-4.657,8.509-4.657,13.818c0,5.407,1.552,10.03,4.657,13.872 c3.111,3.844,7.81,5.758,14.126,5.758c6.312,0,11.034-1.914,14.129-5.758c1.532-1.896,2.686-3.989,3.456-6.272H95.66 c-0.186,0.336-0.39,0.651-0.608,0.943c-1.503,2.005-3.662,3.004-6.477,3.004c-2.808,0-4.982-0.999-6.492-3.004 c-1.122-1.487-1.832-3.436-2.123-5.857H107.237z M82.084,21.702c1.51-1.99,3.683-2.99,6.492-2.99c2.815,0,4.974,0.999,6.477,2.99 c0.959,1.271,1.61,2.892,1.955,4.859H80.111C80.462,24.594,81.12,22.973,82.084,21.702z"></path>

<path class="letters letter-e" d="M37.413,32.913c0.094-0.871,0.155-1.761,0.155-2.686c0-5.31-1.551-9.918-4.648-13.818c-3.109-3.896-7.813-5.84-14.14-5.84 c-6.311,0-11.023,1.944-14.119,5.84C1.551,20.308,0,24.917,0,30.227c0,5.407,1.551,10.03,4.66,13.872 c3.096,3.844,7.808,5.758,14.119,5.758c6.327,0,11.031-1.914,14.14-5.758c1.531-1.903,2.675-3.989,3.455-6.272H25.838 c-0.191,0.336-0.385,0.651-0.618,0.943c-1.506,2.005-3.664,3.004-6.469,3.004c-2.808,0-4.975-0.999-6.481-3.004 c-1.133-1.487-1.842-3.436-2.138-5.857H37.413z M12.269,21.702c1.506-1.997,3.673-2.99,6.481-2.99c2.805,0,4.962,0.992,6.469,2.99 c0.963,1.271,1.611,2.887,1.963,4.859H10.289C10.637,24.589,11.291,22.973,12.269,21.702z"></path>

<path class="letters letter-r" d="M113.916,16.666c2.618-3.293,7.493-5.292,12.407-5.813l2.789,7.997c-2.812,0-5.51,1.349-7.034,3.339 c-1.516,1.997-1.734,4.484-1.734,8.174v18.28h-9.984v-18.28C110.359,25.051,110.821,20.559,113.916,16.666z"></path>
</svg>